<svg xmlns="http://www.w3.org/2000/svg" xmlns:xlink="http://www.w3.org/1999/xlink" width="129" height="129" viewBox="0 0 129 129"> <defs> <linearGradient id="linear-gradient" x1="0.5" x2="0.5" y2="1" gradientUnits="objectBoundingBox"> <stop offset="0" stop-color="#8930fd"/> <stop offset="1" stop-color="#49ccf9"/> </linearGradient> </defs> <g id="Group_72" data-name="Group 72" transform="translate(-928 -594)"> <rect id="Rectangle_161475" data-name="Rectangle 161475" width="129" height="129" transform="translate(928 594)" fill="#171313"/> <g id="Group_174590" data-name="Group 174590" transform="translate(931.408 605.404)"> <g id="element-id-22043" transform="translate(11.592 3.596)"> <g id="element-id-7851"> <path id="element-id-14076" d="M35.69,3.6A52.463,52.463,0,0,0,15.565,7.531c-.974.386-1.9.8-2.821,1.231l.7.121.125.024.949.193.125.048.949.217.125.024.449.145.25-.1a51.274,51.274,0,0,1,38.577,0l.25.1.6-.169.1-.048.949-.217.125-.024.949-.193h.125l.574-.121c-.924-.435-1.873-.845-2.821-1.231A52.68,52.68,0,0,0,35.69,3.6Z" transform="translate(16.02 -3.596)" fill="url(#linear-gradient)"/> <path id="element-id-82170" d="M57.087,24.823c0-11.516-9.688-20.908-21.623-20.908-11.885,0-21.6,9.392-21.6,20.908V67.628c0,11.492,9.713,20.884,21.6,20.884,11.935,0,21.623-9.392,21.623-20.884ZM35.464,17.194a7.77,7.77,0,0,1,7.915,7.629V67.628a7.908,7.908,0,0,1-15.805,0V24.823A7.78,7.78,0,0,1,35.464,17.194Z" transform="translate(42.913 3.787)" fill="url(#linear-gradient)"/> <path id="element-id-63249" d="M49.156,42.664A20.558,20.558,0,0,0,54.974,28.4V24.823c0-11.516-9.688-20.908-21.6-20.908-11.935,0-21.648,9.392-21.648,20.908a6.774,6.774,0,0,0,6.891,6.639,6.746,6.746,0,0,0,6.841-6.639,7.895,7.895,0,0,1,15.78,0V28.4a7.758,7.758,0,0,1-7.865,7.629,6.631,6.631,0,1,0,0,13.254,7.758,7.758,0,0,1,7.865,7.629V67.628a7.9,7.9,0,0,1-15.78,0,6.751,6.751,0,0,0-6.841-6.663,6.778,6.778,0,0,0-6.891,6.663c0,11.492,9.713,20.884,21.648,20.884,11.91,0,21.6-9.392,21.6-20.884V56.909A20.5,20.5,0,0,0,49.156,42.664Z" transform="translate(-8.332 3.787)" fill="url(#linear-gradient)"/> <path id="element-id-50603" d="M14.164,5.02a48.8,48.8,0,0,0,0,31.265l.275-.362.275-.29.674-.652.325-.241.175-.121A45.354,45.354,0,0,1,13.739,20.64,45.466,45.466,0,0,1,15.887,6.662l-.35-.241-.3-.266L14.563,5.5l-.25-.314Z" transform="translate(-11.592 29.36)" fill="url(#linear-gradient)"/> <path id="element-id-75805" d="M55.84,9.5a52.229,52.229,0,0,1-20.15,3.935A52.015,52.015,0,0,1,15.565,9.5,29.313,29.313,0,0,1,12.744,8.24l.574-.072.125-.024.949-.193h.125l.924-.241.125-.048.6-.169.25.121A50.5,50.5,0,0,0,35.69,11.355a50.441,50.441,0,0,0,19.3-3.742l.25-.121.424.121.125.048.924.241.15.024.924.217h.15l.724.1C57.738,8.7,56.789,9.134,55.84,9.5Z" transform="translate(16.02 86.569)" fill="url(#linear-gradient)"/> </g> </g> </g> </g> </svg>
